# This file uses centimeters as units for non-parametric coordinates.

v 0.866025 -9.106684 -0.500000
v 0.500000 -9.106684 -0.866025
v 0.000000 -9.106684 -1.000000
v -0.500000 -9.106684 -0.866025
v -0.866025 -9.106684 -0.500000
v -1.000000 -9.106684 0.000000
v -0.866025 -9.106684 0.500000
v -0.500000 -9.106684 0.866025
v 0.000000 -9.106684 1.000000
v 0.500000 -9.106684 0.866025
v 0.866025 -9.106684 0.500000
v 1.000000 -9.106684 0.000000
v 0.866025 189.192093 -0.500000
v 0.500000 189.192093 -0.866025
v 0.000000 189.192093 -1.000000
v -0.500000 189.192093 -0.866025
v -0.866025 189.192093 -0.500000
v -1.000000 189.192093 0.000000
v -0.866025 189.192093 0.500000
v -0.500000 189.192093 0.866025
v 0.000000 189.192093 1.000000
v 0.500000 189.192093 0.866025
v 0.866025 189.192093 0.500000
v 1.000000 189.192093 0.000000
v 0.000000 -27.320070 0.000000
v 0.000000 207.405441 0.000000
vt 0.062178 0.083570
vt 0.067628 0.083570
vt 0.067626 0.912502
vt 0.062177 0.912502
vt 0.073077 0.083570
vt 0.007685 0.912502
vt 0.013136 0.083570
vt 0.013135 0.912502
vt 0.018585 0.083570
vt 0.018584 0.912502
vt 0.024034 0.083570
vt 0.024033 0.912502
vt 0.029483 0.083570
vt 0.029482 0.912502
vt 0.034932 0.083570
vt 0.034931 0.912502
vt 0.040382 0.083570
vt 0.040381 0.912502
vt 0.045831 0.083570
vt 0.045830 0.912502
vt 0.051280 0.083570
vt 0.051279 0.912502
vt 0.056729 0.083570
vt 0.056728 0.912502
vt 0.059454 0.007327
vt 0.054003 0.988745
vt 0.048554 0.988745
vt 0.043105 0.988744
vt 0.037656 0.988744
vt 0.032207 0.988745
vt 0.026757 0.988745
vt 0.021308 0.988745
vt 0.015859 0.988745
vt 0.010410 0.988744
vt 0.070351 0.988744
vt 0.064902 0.988745
vt 0.059453 0.988745
vt 0.073076 0.912502
vt 0.064903 0.007327
vt 0.070352 0.007327
vt 0.010411 0.007327
vt 0.015860 0.007327
vt 0.021310 0.007327
vt 0.026759 0.007327
vt 0.032208 0.007327
vt 0.037657 0.007327
vt 0.043106 0.007327
vt 0.048556 0.007327
vt 0.054005 0.007327
vt 0.007687 0.083570
vn 0.866023 -0.002390 -0.499999
vn 0.499999 -0.002390 -0.866023
vn 0.499999 0.002390 -0.866023
vn 0.866023 0.002390 -0.499999
vn 0.000000 -0.002390 -0.999997
vn 0.000000 0.002390 -0.999997
vn -0.499999 -0.002390 -0.866023
vn -0.499999 0.002390 -0.866023
vn -0.866023 -0.002390 -0.499999
vn -0.866023 0.002390 -0.499999
vn -0.999997 -0.002390 0.000000
vn -0.999997 0.002390 0.000000
vn -0.866023 -0.002390 0.499999
vn -0.866023 0.002390 0.499999
vn -0.499999 -0.002390 0.866023
vn -0.499999 0.002390 0.866023
vn 0.000000 -0.002390 0.999997
vn 0.000000 0.002390 0.999997
vn 0.499999 -0.002390 0.866023
vn 0.499999 0.002390 0.866023
vn 0.866023 -0.002390 0.499999
vn 0.866023 0.002390 0.499999
vn 0.999997 -0.002390 0.000000
vn 0.999997 0.002390 0.000000
vn 0.000000 -1.000000 0.000000
vn 0.000000 1.000000 0.000000
f 1/1/1 2/2/2 14/3/3 13/4/4
f 2/2/2 3/5/5 15/38/6 14/3/3
f 3/50/5 4/7/7 16/8/8 15/6/6
f 4/7/7 5/9/9 17/10/10 16/8/8
f 5/9/9 6/11/11 18/12/12 17/10/10
f 6/11/11 7/13/13 19/14/14 18/12/12
f 7/13/13 8/15/15 20/16/16 19/14/14
f 8/15/15 9/17/17 21/18/18 20/16/16
f 9/17/17 10/19/19 22/20/20 21/18/18
f 10/19/19 11/21/21 23/22/22 22/20/20
f 11/21/21 12/23/23 24/24/24 23/22/22
f 12/23/23 1/1/1 13/4/4 24/24/24
f 2/2/2 1/1/1 25/39/25
f 3/5/5 2/2/2 25/40/25
f 4/7/7 3/50/5 25/41/25
f 5/9/9 4/7/7 25/42/25
f 6/11/11 5/9/9 25/43/25
f 7/13/13 6/11/11 25/44/25
f 8/15/15 7/13/13 25/45/25
f 9/17/17 8/15/15 25/46/25
f 10/19/19 9/17/17 25/47/25
f 11/21/21 10/19/19 25/48/25
f 12/23/23 11/21/21 25/49/25
f 1/1/1 12/23/23 25/25/25
f 13/4/4 14/3/3 26/36/26
f 14/3/3 15/38/6 26/35/26
f 15/6/6 16/8/8 26/34/26
f 16/8/8 17/10/10 26/33/26
f 17/10/10 18/12/12 26/32/26
f 18/12/12 19/14/14 26/31/26
f 19/14/14 20/16/16 26/30/26
f 20/16/16 21/18/18 26/29/26
f 21/18/18 22/20/20 26/28/26
f 22/20/20 23/22/22 26/27/26
f 23/22/22 24/24/24 26/26/26
f 24/24/24 13/4/4 26/37/26
